<svg xmlns="http://www.w3.org/2000/svg" viewBox="0 0 1073 293.69"><title>Logo</title><g id="Layer_2" data-name="Layer 2"><g id="Layer_1-2" data-name="Layer 1"><path d="M62.26,197a63.68,63.68,0,0,1-37.92-12A58.58,58.58,0,0,1,6.48,164.43,54.44,54.44,0,0,1,0,138.88a32.9,32.9,0,0,1,.2-4.19,47.2,47.2,0,0,1,4.29-15.26A51.47,51.47,0,0,1,13.57,106a41.9,41.9,0,0,1,13.57-9.78A40.19,40.19,0,0,1,42.7,92.59a44,44,0,0,1,16.86,2.89,39.33,39.33,0,0,1,13.87,8.88A35.13,35.13,0,0,1,84.21,130.1a6.8,6.8,0,0,1-2.5,5.49,8.58,8.58,0,0,1-5.68,2.1,7.82,7.82,0,0,1-5.29-2,7,7,0,0,1-2.3-5.59,19.4,19.4,0,0,0-6-14.56,24.16,24.16,0,0,0-8.58-5.49,30.2,30.2,0,0,0-10.78-1.9A24.4,24.4,0,0,0,30,112.44a31.36,31.36,0,0,0-9.78,10.48,34.12,34.12,0,0,0-4.49,13.17l-.2,3a38,38,0,0,0,4.79,18.26,43.54,43.54,0,0,0,13.17,14.87,48.27,48.27,0,0,0,28.74,9A51.29,51.29,0,0,0,89,173.8a48.75,48.75,0,0,0,17.16-17,43.25,43.25,0,0,0,6.18-22.55q0-1.78-.4-5.78a40.51,40.51,0,0,0-7.88-19.76q-6.48-8.58-18.65-19.55Q75.23,79.83,68.94,72.83a64.08,64.08,0,0,1-10.47-16,34.7,34.7,0,0,1-3.39-15.76,41.25,41.25,0,0,1,3.19-16.17A40.49,40.49,0,0,1,68,10.58,39.3,39.3,0,0,1,82.21,1.8,33.86,33.86,0,0,1,93,0a34.39,34.39,0,0,1,21.55,7.58,37.36,37.36,0,0,1,10.48,13,35.77,35.77,0,0,1,3.69,15.77,22.36,22.36,0,0,1-.2,3.39,7.61,7.61,0,0,1-2.9,5.19,8,8,0,0,1-5.68,1.79,7.56,7.56,0,0,1-5.19-2.89,8,8,0,0,1-1.8-5.69A21.14,21.14,0,0,0,111.25,28,19.88,19.88,0,0,0,105,20a19.06,19.06,0,0,0-12-4.39,18.42,18.42,0,0,0-5.79,1A22.93,22.93,0,0,0,78.72,22a27.35,27.35,0,0,0-6.09,9,24.74,24.74,0,0,0-2,10,20.26,20.26,0,0,0,2,9.18,52.37,52.37,0,0,0,8.89,13.17Q87,69.25,96,77.62q9.58,9,15.37,15.27a72.32,72.32,0,0,1,10.37,14.86,52.73,52.73,0,0,1,5.79,19,56.64,56.64,0,0,1,.4,7.78,60.3,60.3,0,0,1-7,28.34q-8,15-23.94,24.54A66.92,66.92,0,0,1,62.26,197Z"/><path d="M154.65,154.05a29.25,29.25,0,0,1-11.58-14.17,30,30,0,0,1-2.19-11.77q0-9.18,4.79-21.75A65.18,65.18,0,0,1,155.94,88.3a24.1,24.1,0,0,1,15.27-9.08,16.73,16.73,0,0,1,3-.2,18.34,18.34,0,0,1,12.57,4.39q6.58,5.39,6.19,16.16a37.27,37.27,0,0,1-1.2,7.39c-.67,2.52-1.06,4.12-1.19,4.79a28.83,28.83,0,0,1-1.5,4.68,5.85,5.85,0,0,1-2.3,2.5,6.62,6.62,0,0,1-4.59,1.6,7.69,7.69,0,0,1-5.78-2.5,7.78,7.78,0,0,1-2.2-6.08,14.35,14.35,0,0,1,.6-2.6c.27-.8.47-1.46.6-2a13.5,13.5,0,0,1,.6-1.8,11.09,11.09,0,0,0,.6-2.39,12.14,12.14,0,0,1,.4-2.3,13.94,13.94,0,0,0,.4-3.09,3.44,3.44,0,0,0-1-2.8,5,5,0,0,0-2.2-.6q-2.59,0-5.29,2.9a32,32,0,0,0-4.48,6.08,55.92,55.92,0,0,0-6.59,16.57c-.13.53-.4,1.69-.8,3.49a22.67,22.67,0,0,0-.6,4.89,14.09,14.09,0,0,0,1.4,6.38,14.28,14.28,0,0,0,5.89,6.69,16.73,16.73,0,0,0,8.88,2.49A23.29,23.29,0,0,0,183,141a36.85,36.85,0,0,0,9.18-7.09,44.91,44.91,0,0,0,7.19-9.77c.39-.8.86-1.8,1.39-3a15.53,15.53,0,0,1,1.7-3,7.38,7.38,0,0,1,2.29-2,8.13,8.13,0,0,1,3.59-1,7.36,7.36,0,0,1,5.49,2.39,7.84,7.84,0,0,1,2.3,5.59,7,7,0,0,1-.2,2q-3,10.38-13.17,20.16a49,49,0,0,1-20,12.57,36.27,36.27,0,0,1-10.37,1.6A31.66,31.66,0,0,1,154.65,154.05Z"/><path d="M253,154.25a28.77,28.77,0,0,1-3.19-3.39,31.5,31.5,0,0,1-10.08,6.28,30.26,30.26,0,0,1-10.88,2.1,27.44,27.44,0,0,1-14.06-3.79,29.06,29.06,0,0,1-10.48-10.58,30.51,30.51,0,0,1-4-15.76,58.24,58.24,0,0,1,2.19-14.37q4.2-15,12.58-23.75A37.79,37.79,0,0,1,226,82.91a29.06,29.06,0,0,1,13.27-3.29,19.72,19.72,0,0,1,5.79.8,24.49,24.49,0,0,1,13.57,8.38l1-3.2a8.16,8.16,0,0,1,2.89-4.19A7.29,7.29,0,0,1,267,79.82a6.84,6.84,0,0,1,2.19.4,8.08,8.08,0,0,1,4.19,2.89A7.52,7.52,0,0,1,275,87.8a10.65,10.65,0,0,1-.4,2.19l-12,40.71a28.2,28.2,0,0,0-1.2,7,6.48,6.48,0,0,0,1.8,4.79,6.61,6.61,0,0,0,4.19,1.39,8.79,8.79,0,0,0,4-1,9.74,9.74,0,0,0,3.69-3.69,37.82,37.82,0,0,0,3.09-7.28l4-13a7.11,7.11,0,0,1,2.7-4.19,7.58,7.58,0,0,1,4.69-1.6,11.41,11.41,0,0,1,2.19.4,8.14,8.14,0,0,1,4.19,2.89,7.32,7.32,0,0,1,1.6,4.49,6.9,6.9,0,0,1-.4,2.2l-4.19,13.77a47.39,47.39,0,0,1-5.09,11.57,23,23,0,0,1-9.68,8.58,24.06,24.06,0,0,1-10.57,2.4A22,22,0,0,1,253,154.25Zm-13.57-15q5-4.38,8.38-13.57l2.2-7.38a47.78,47.78,0,0,0,.79-6.78A19.8,19.8,0,0,0,247.63,100a9.78,9.78,0,0,0-8.38-4.59,14.55,14.55,0,0,0-6.68,1.8,22,22,0,0,0-6.09,4.59q-5.79,6.18-9,17.36a40,40,0,0,0-1.6,9.78,18.16,18.16,0,0,0,.6,4.79,12.29,12.29,0,0,0,2.2,4.49,11.89,11.89,0,0,0,3.79,3.29,14.32,14.32,0,0,0,7,2,16.49,16.49,0,0,0,2.8-.4A16.92,16.92,0,0,0,239.45,139.28Z"/><path d="M293.53,157.64a22.91,22.91,0,0,1-8-5.19q-6.8-6.58-6.79-17.16,0-7.18,3.39-17.76l6.39-22h-2a7.15,7.15,0,0,1-5.38-2.29A7.64,7.64,0,0,1,279,87.8a7.5,7.5,0,0,1,7.58-7.58h6.59l16.16-53.48a7.37,7.37,0,0,1,2.8-4.19,7.47,7.47,0,0,1,4.39-1.4,8.58,8.58,0,0,1,5.68,2.1,6.78,6.78,0,0,1,2.5,5.48,11.24,11.24,0,0,1-.4,2.4L309.49,80.22h4.39a7.48,7.48,0,0,1,7.58,7.58,7.67,7.67,0,0,1-2.19,5.49,7.17,7.17,0,0,1-5.39,2.29h-9l-7.78,26.34q-2.79,9-2.79,13.37a8.38,8.38,0,0,0,2.19,6.19q2.19,2.19,6.39,2.19a12,12,0,0,0,5.38-1.19,10.29,10.29,0,0,0,4.79-4.89,64.2,64.2,0,0,0,3.6-8.88l2.59-8.18a7.84,7.84,0,0,1,2.79-4.1,7.49,7.49,0,0,1,4.59-1.49,10.8,10.8,0,0,1,2.4.4,8.2,8.2,0,0,1,4,2.89,7.58,7.58,0,0,1,1.6,4.69,11.41,11.41,0,0,1-.4,2.19l-2.6,8.39a69.21,69.21,0,0,1-5.88,13.37,25.17,25.17,0,0,1-10.28,9.57,27.31,27.31,0,0,1-12.37,3A26,26,0,0,1,293.53,157.64Z"/><path d="M331.44,157.64a22.91,22.91,0,0,1-8-5.19q-6.78-6.58-6.79-17.16,0-7.18,3.4-17.76l6.38-22h-2a7.16,7.16,0,0,1-5.39-2.29,7.64,7.64,0,0,1-2.2-5.49,7.5,7.5,0,0,1,7.59-7.58H331L347.2,26.74a7.42,7.42,0,0,1,2.8-4.19,7.49,7.49,0,0,1,4.39-1.4,8.6,8.6,0,0,1,5.69,2.1,6.8,6.8,0,0,1,2.49,5.48,10.63,10.63,0,0,1-.4,2.4L347.4,80.22h4.39a7.5,7.5,0,0,1,7.59,7.58,7.68,7.68,0,0,1-2.2,5.49,7.16,7.16,0,0,1-5.39,2.29h-9L335,121.92q-2.79,9-2.79,13.37a8.38,8.38,0,0,0,2.19,6.19q2.2,2.19,6.39,2.19a12,12,0,0,0,5.39-1.19,10.38,10.38,0,0,0,4.79-4.89,65.58,65.58,0,0,0,3.59-8.88l2.59-8.18a7.8,7.8,0,0,1,2.8-4.1,7.44,7.44,0,0,1,4.58-1.49,10.71,10.71,0,0,1,2.4.4,8.16,8.16,0,0,1,4,2.89,7.58,7.58,0,0,1,1.6,4.69,11.41,11.41,0,0,1-.4,2.19l-2.6,8.39a68.61,68.61,0,0,1-5.88,13.37,25.17,25.17,0,0,1-10.28,9.57,27.31,27.31,0,0,1-12.37,3A26,26,0,0,1,331.44,157.64Z"/><path d="M371.05,154.85A29.63,29.63,0,0,1,359,142.48a29.05,29.05,0,0,1-2.8-13.17,50.21,50.21,0,0,1,2.6-15.57A74.05,74.05,0,0,1,365.36,99a59.82,59.82,0,0,1,11.47-14.16A21,21,0,0,1,391.1,79a14.44,14.44,0,0,1,4.19.6,19.08,19.08,0,0,1,11,8,19.86,19.86,0,0,1,3.39,11.77,29.35,29.35,0,0,1-1.6,9.38A40.15,40.15,0,0,1,396,126.51q-8.67,7.59-18.66,7.58a20.83,20.83,0,0,1-5-.59,11.75,11.75,0,0,0,5.78,7.48,19.34,19.34,0,0,0,10,2.69,13.86,13.86,0,0,0,4-.4,30.26,30.26,0,0,0,13-6.68,43.07,43.07,0,0,0,9.78-11.87c.4-.8,1-2,1.7-3.6a15.92,15.92,0,0,1,2.39-3.89,5.88,5.88,0,0,1,3.49-1.89,7.78,7.78,0,0,1,5.69,1,7.35,7.35,0,0,1,3.49,4.58,7.16,7.16,0,0,1,.2,2,12.1,12.1,0,0,1-1.1,4.89,45.88,45.88,0,0,1-3.09,5.69A57.24,57.24,0,0,1,404,155.65a35.53,35.53,0,0,1-15.86,3.79A34,34,0,0,1,371.05,154.85Zm6.28-36.52a11.63,11.63,0,0,0,6.39-2.09,24.17,24.17,0,0,0,5.59-5.09,18,18,0,0,0,4.19-8.38,29.94,29.94,0,0,0,.6-3.6,4.48,4.48,0,0,0-1.4-3.59,2.72,2.72,0,0,0-2-.8q-3,0-7.18,5.59a49.63,49.63,0,0,0-9.58,17.36A10.74,10.74,0,0,0,377.33,118.33Z"/><path d="M459.94,154.25a22.07,22.07,0,0,1-5.88-7.78,22.79,22.79,0,0,1-2.1-9.58,24.94,24.94,0,0,1,1.2-7.58q2.4-8,3.59-11.68c.8-2.46,1.26-3.89,1.4-4.29a15.09,15.09,0,0,0,.8-4.79,6.83,6.83,0,0,0-1.2-4.19,16.14,16.14,0,0,0-7.08-5,44.75,44.75,0,0,0-10.48-2.79l-9.58,31.93a9.68,9.68,0,0,1-3,4.19,7.16,7.16,0,0,1-4.59,1.59,10.82,10.82,0,0,1-2.2-.4,7.55,7.55,0,0,1-4.09-2.89,7.86,7.86,0,0,1-1.49-4.69,10.65,10.65,0,0,1,.4-2.19l11.57-38.71a7.67,7.67,0,0,1,2.89-4.1,7.93,7.93,0,0,1,4.69-1.49q26.54,2,35.52,15a22.81,22.81,0,0,1,4.19,13.77,28.8,28.8,0,0,1-1.6,9.58l-4.78,15.76a8.47,8.47,0,0,0-.4,3,6.78,6.78,0,0,0,2,5,6.53,6.53,0,0,0,4.79,2,8.42,8.42,0,0,0,3.79-1,8,8,0,0,0,3.69-4.09,85.13,85.13,0,0,0,3.3-8.08l3.79-13.17a8.12,8.12,0,0,1,2.89-4.19,7.31,7.31,0,0,1,4.49-1.59,7.15,7.15,0,0,1,2.2.39,8.24,8.24,0,0,1,4.19,2.9,7.55,7.55,0,0,1,1.59,4.69,10.65,10.65,0,0,1-.4,2.19q-.59,2-1.79,6.39t-2.2,7.18a64.89,64.89,0,0,1-5.58,13.07,21.38,21.38,0,0,1-9.18,8.48,24.56,24.56,0,0,1-10.78,2.4A22,22,0,0,1,459.94,154.25Z"/><path d="M623.27,194.76a79.9,79.9,0,0,1-24.44-13.17,32.75,32.75,0,0,1-11,7.58,32.23,32.23,0,0,1-12.57,2.59,31.17,31.17,0,0,1-15.86-4.19,22.49,22.49,0,0,1-10.08-11,18.48,18.48,0,0,1-1.6-7.18,19,19,0,0,1,3.59-11,22.77,22.77,0,0,1,9.28-7.78,27.81,27.81,0,0,1,12.87-2.6,37.65,37.65,0,0,1,19.36,6.59L626.16,43.1a8.14,8.14,0,0,1,2.9-4.19,7.28,7.28,0,0,1,4.49-1.6,7.18,7.18,0,0,1,2.19.4,9.72,9.72,0,0,1,4.19,3,7.11,7.11,0,0,1,1.6,4.59,11.41,11.41,0,0,1-.4,2.19l-8.78,28.94-.2,1a66.65,66.65,0,0,0,11,1,56.63,56.63,0,0,0,14.67-1.89,42.46,42.46,0,0,0,12.27-5.29,28.24,28.24,0,0,0,12-19c.26-2.39.4-4.12.4-5.19a26.48,26.48,0,0,0-5.89-17q-5.89-7.38-16.86-11.37a55,55,0,0,0-19-3.2,68.39,68.39,0,0,0-20.35,3.1A63.85,63.85,0,0,0,602,27.74a42,42,0,0,0-12.47,13.37,39.56,39.56,0,0,0-5.69,16.76,18.4,18.4,0,0,0-.2,3.19,24.83,24.83,0,0,0,6.78,17.36,7.32,7.32,0,0,1,2.2,5.39,7.69,7.69,0,0,1-2.39,5.59,8.29,8.29,0,0,1-5.39,2.19A8,8,0,0,1,579.07,89q-11-11.58-11-28.14a37.87,37.87,0,0,1,.21-4.59,55.25,55.25,0,0,1,7.78-22.85A61.14,61.14,0,0,1,592.84,15,85,85,0,0,1,640.73,0a72,72,0,0,1,24.35,4q15.36,5.59,24.14,17.16A42.18,42.18,0,0,1,698,47.29a51.11,51.11,0,0,1-.6,7.59,42,42,0,0,1-18.56,29.33q18.57,6.39,27.94,20.45a55.11,55.11,0,0,1,9.38,31.23,62.64,62.64,0,0,1-8,30.53,63.88,63.88,0,0,1-22.75,23.75q-14.77,9.17-34.52,9.18A86.55,86.55,0,0,1,623.27,194.76Zm-43.1-29a24.55,24.55,0,0,0-8.68-1.69,12.8,12.8,0,0,0-5.89,1.19,3.85,3.85,0,0,0-2.29,3.6,6.25,6.25,0,0,0,.4,1.79q1,2.19,4.38,3.89a16.35,16.35,0,0,0,7.39,1.7,12,12,0,0,0,2.59-.2,10.74,10.74,0,0,0,4.89-1.8,16.6,16.6,0,0,0,4.69-3.79A20.84,20.84,0,0,0,580.17,165.72Zm67.35-71.14a139.79,139.79,0,0,0-14.57.8,37.83,37.83,0,0,1-6.39.2L605.41,167a4.52,4.52,0,0,1,1.2.8,64.66,64.66,0,0,0,20.45,11.67,69.71,69.71,0,0,0,23.85,4.29q2.39,0,6.78-.4A46.19,46.19,0,0,0,680.14,175,47,47,0,0,0,695,157.54a47.91,47.91,0,0,0,5.18-21.45,40,40,0,0,0-4.78-19.26A37.15,37.15,0,0,0,681,102.37Q668.07,94.59,647.52,94.58Z"/><path d="M773.63,154.25a22,22,0,0,1-5.89-7.78,22.79,22.79,0,0,1-2.1-9.58,25.25,25.25,0,0,1,1.2-7.58q2.4-8,3.6-11.68c.79-2.46,1.26-3.89,1.39-4.29a15.09,15.09,0,0,0,.8-4.79,6.83,6.83,0,0,0-1.2-4.19,16,16,0,0,0-7.08-5,44.49,44.49,0,0,0-10.48-2.79l-9.58,31.93a9.68,9.68,0,0,1-3,4.19,7.16,7.16,0,0,1-4.59,1.59,10.65,10.65,0,0,1-2.19-.4,7.51,7.51,0,0,1-4.09-2.89,7.87,7.87,0,0,1-1.5-4.69,10.65,10.65,0,0,1,.4-2.19L740.9,85.41a7.64,7.64,0,0,1,2.9-4.1,7.89,7.89,0,0,1,4.69-1.49q26.53,2,35.51,15a22.81,22.81,0,0,1,4.19,13.77,29,29,0,0,1-1.59,9.58l-4.79,15.76a8.47,8.47,0,0,0-.4,3,6.75,6.75,0,0,0,2,5,6.49,6.49,0,0,0,4.78,2,8.49,8.49,0,0,0,3.8-1,8,8,0,0,0,3.69-4.09q1.49-3.09,3.29-8.08l3.79-13.17a8.18,8.18,0,0,1,2.89-4.19,7.31,7.31,0,0,1,4.49-1.59,7.15,7.15,0,0,1,2.2.39,8.2,8.2,0,0,1,4.19,2.9,7.56,7.56,0,0,1,1.6,4.69,11.41,11.41,0,0,1-.4,2.19q-.6,2-1.8,6.39t-2.19,7.18a65.46,65.46,0,0,1-5.59,13.07A21.38,21.38,0,0,1,799,157a24.56,24.56,0,0,1-10.78,2.4A21.94,21.94,0,0,1,773.63,154.25Z"/><path d="M807.55,148.66q-6.39-8.39-6.39-20.15a41.72,41.72,0,0,1,1.2-9.78Q808.15,91,826.71,82.41a29,29,0,0,1,12.77-2.79,29.78,29.78,0,0,1,12.07,2.49,26.09,26.09,0,0,1,9.68,7.29A31.89,31.89,0,0,1,868.41,107q1.59,2.6,6.39,2.59a12.56,12.56,0,0,0,4-.6q3.78-1.4,7-8.78c1.6-2.92,3.72-4.39,6.39-4.39A6.1,6.1,0,0,1,894,96q5.79,1.39,5.79,7a18.47,18.47,0,0,1-1.8,7.58,21,21,0,0,1-4.19,6.38,23.46,23.46,0,0,1-8.58,6.29A25,25,0,0,1,875,125.51q-5.19,0-8.18-2.19a63,63,0,0,1-7.59,17.26,46.72,46.72,0,0,1-12.67,13.57,28,28,0,0,1-16.46,5.29,23.94,23.94,0,0,1-5-.4A27.17,27.17,0,0,1,807.55,148.66Zm22.35-4.79a14.76,14.76,0,0,0,10.18-4.19,33.18,33.18,0,0,0,8.48-11.37,45,45,0,0,0,4.09-14.17,24.18,24.18,0,0,0,.2-3.59q0-11.77-8.78-14.37a14,14,0,0,0-5-1,15,15,0,0,0-9.18,3.3,21.27,21.27,0,0,0-6.59,7.88,60.35,60.35,0,0,0-5.18,13.57,36,36,0,0,0-1.4,9.38,17.27,17.27,0,0,0,.4,4.39,14.8,14.8,0,0,0,3.39,6,12.62,12.62,0,0,0,5.59,3.59A14.64,14.64,0,0,0,829.9,143.87Z"/><path d="M924.08,153.05a25.67,25.67,0,0,1-17,6.39,27,27,0,0,1-10.18-2.2,7.64,7.64,0,0,1-3.39-2.89,7.86,7.86,0,0,1-1.2-4.29,8,8,0,0,1,.6-3.19,6.89,6.89,0,0,1,2.9-3.3,8.05,8.05,0,0,1,4.29-1.29,7.67,7.67,0,0,1,3,.59,9.61,9.61,0,0,0,4,.8,10.69,10.69,0,0,0,7.78-3.39,19.42,19.42,0,0,0,4.49-6.39,17.57,17.57,0,0,0,1.7-7.18,12.56,12.56,0,0,0-.6-4,19.79,19.79,0,0,0-4.59-6.78,117.32,117.32,0,0,0-9.18-8c-.27-.13-2.19-1.66-5.79-4.59l-5.58,20.16a8.42,8.42,0,0,1-2.8,4.19,7.39,7.39,0,0,1-4.79,1.6,7.08,7.08,0,0,1-2-.2,6.94,6.94,0,0,1-4.19-2.8,7.93,7.93,0,0,1-1.6-4.79,7.08,7.08,0,0,1,.2-2l9.38-34.32a7.69,7.69,0,0,1,2.89-3.9,7.93,7.93,0,0,1,4.69-1.49,8,8,0,0,1,6.79,3.59q3.18,5.19,12.37,12.37a123.05,123.05,0,0,1,11.87,10.38,30.72,30.72,0,0,1,6.89,11.17,23.73,23.73,0,0,1,1.59,9.18,33.43,33.43,0,0,1-3,14,8.49,8.49,0,0,0,6.78,3.39,7.43,7.43,0,0,0,3.4-.8,10.33,10.33,0,0,0,3.79-3.79,31.45,31.45,0,0,0,3-7.18l4-13.17a8.35,8.35,0,0,1,2.8-4.19,7.13,7.13,0,0,1,4.59-1.6,11.68,11.68,0,0,1,2.19.4,8.18,8.18,0,0,1,4.19,2.89,7.6,7.6,0,0,1,1.6,4.69,11.47,11.47,0,0,1-.4,2.2l-4,13.57a60.47,60.47,0,0,1-5.29,11.77,22,22,0,0,1-9.68,8.38,22.81,22.81,0,0,1-10.37,2.4A23.22,23.22,0,0,1,924.08,153.05Z"/><path d="M204.86,210.32a20.11,20.11,0,0,1-.39,3.63,16.4,16.4,0,0,1-5.4,9c-3.23,2.77-7.43,4.16-12.57,4.16a39.81,39.81,0,0,1-9.48-1.23q-2.7-.63-10-2.7-5.4-1.55-9.18-2.55a66.27,66.27,0,0,0-7.48-1.54l-12.33,41.64A106.1,106.1,0,0,1,134,272.33a40.29,40.29,0,0,1-5.44,9.06,33.58,33.58,0,0,1-8.56,7.52,23.82,23.82,0,0,1-6.67,2.66,23.18,23.18,0,0,1-7.13.73,19.63,19.63,0,0,1-7.33-1.81,16.15,16.15,0,0,1-5.55-4.28,2.8,2.8,0,0,1-.69-1.93,2.92,2.92,0,0,1,1-2.16,3,3,0,0,1,2.12-.93A2.66,2.66,0,0,1,98,282.35a10.44,10.44,0,0,0,4.16,2.93,14.85,14.85,0,0,0,5.71,1.08,16.87,16.87,0,0,0,9-2.62,27.73,27.73,0,0,0,7.17-6.32,33.55,33.55,0,0,0,4.63-7.91,105.89,105.89,0,0,0,3.62-10.6l12-40.41a34.86,34.86,0,0,0-9.17,1,27.44,27.44,0,0,0-8.1,3.55,20.15,20.15,0,0,0-6.48,6.94,17.88,17.88,0,0,0-2.54,9.1,14.26,14.26,0,0,0,2.08,7.63,2.81,2.81,0,0,1,.54,1.62,2.7,2.7,0,0,1-1,2,3.14,3.14,0,0,1-2.19.88,3,3,0,0,1-2.55-1.46A21.22,21.22,0,0,1,112,238.93a24.36,24.36,0,0,1,1.08-6.94,27,27,0,0,1,4.17-8,24.76,24.76,0,0,1,6.55-6,35.55,35.55,0,0,1,19.51-5.55c.67,0,1.77.05,3.32.15a66.59,66.59,0,0,1,9.79,1.51q4.86,1.11,12.34,3.27l2.16.62c3.95,1.08,6.45,1.75,7.48,2a33.5,33.5,0,0,0,8.09,1.16c3.71,0,6.58-.92,8.64-2.77a10.62,10.62,0,0,0,2.74-3.67,10.43,10.43,0,0,0,1-4.36,8.12,8.12,0,0,0-1-4.08,4.11,4.11,0,0,1-.39-1.47,2.66,2.66,0,0,1,1-2.08,3.25,3.25,0,0,1,2.2-.85,2.75,2.75,0,0,1,2.54,1.54A14.49,14.49,0,0,1,204.86,210.32Z"/><path d="M141,271a4.47,4.47,0,0,1,.15-1l13.8-45.8a5,5,0,0,0,.27-.89,5.1,5.1,0,0,1,.51-1.27,2.35,2.35,0,0,1,.77-.85,2.88,2.88,0,0,1,1.69-.54,3.12,3.12,0,0,1,1.93.65,2.83,2.83,0,0,1,1.08,1.66l.08.54a6.93,6.93,0,0,1-.31,1.7l-5.79,19a13.62,13.62,0,0,1,5-1,8.67,8.67,0,0,1,7.09,3.09,8.5,8.5,0,0,1,1.78,5,12.49,12.49,0,0,1-.58,3.59c-.39,1.26-.63,2.12-.74,2.58-.61,2-1.15,4.14-1.61,6.4a6.77,6.77,0,0,0-.31,1.85,2.24,2.24,0,0,0,.54,1.54,2.88,2.88,0,0,0,2.16.77,3.41,3.41,0,0,0,1.92-.46,3.3,3.3,0,0,0,1.35-1.39,11.42,11.42,0,0,0,.81-1.77c.21-.56.34-.93.39-1.08l1.39-4.86a3.09,3.09,0,0,1,1.12-1.62,2.89,2.89,0,0,1,1.81-.61,3.85,3.85,0,0,1,.85.07,3.25,3.25,0,0,1,1.34.81,2.66,2.66,0,0,1,.74,1.35,2.44,2.44,0,0,1,.08.7,7,7,0,0,1-.31,1.54l-.81,3a24.9,24.9,0,0,1-1.58,4.32,13,13,0,0,1-2.16,3.2,8.45,8.45,0,0,1-3.13,2.09,10.63,10.63,0,0,1-3.81.69,9.68,9.68,0,0,1-3.55-.66,7.92,7.92,0,0,1-5.09-7.59,20.24,20.24,0,0,1,.69-4.78c.41-1.85.88-3.58,1.39-5.17l.77-2.85a5,5,0,0,0,.31-1.55,2,2,0,0,0-.46-1.38c-.41-.57-1.29-.85-2.62-.85a6.83,6.83,0,0,0-5,2.39,21.29,21.29,0,0,0-3.43,5.63q-.85,2-2.08,6l-.77,2.55c-.52,1.85-.93,3.24-1.24,4.16l-.27,1.12a4.7,4.7,0,0,1-.57,1.43,2.71,2.71,0,0,1-1.12,1.08A3.28,3.28,0,0,1,144,274a2.62,2.62,0,0,1-2.46-1.31A2.89,2.89,0,0,1,141,271Z"/><path d="M179.6,272.33a11.43,11.43,0,0,1-4.66-4.79,11.2,11.2,0,0,1-1.08-5.09,19.35,19.35,0,0,1,1-6,28.69,28.69,0,0,1,2.54-5.71,23.18,23.18,0,0,1,4.44-5.47,8.11,8.11,0,0,1,5.51-2.24,5.77,5.77,0,0,1,1.62.23,7.42,7.42,0,0,1,4.24,3.09,7.69,7.69,0,0,1,1.31,4.55,11.41,11.41,0,0,1-.61,3.62,15.65,15.65,0,0,1-4.67,6.87,10.8,10.8,0,0,1-7.21,2.93,7.67,7.67,0,0,1-1.93-.24,4.58,4.58,0,0,0,2.24,2.9,7.52,7.52,0,0,0,3.85,1,5.18,5.18,0,0,0,1.55-.16,11.74,11.74,0,0,0,5-2.58,16.69,16.69,0,0,0,3.78-4.59c.15-.31.37-.77.65-1.39a6.22,6.22,0,0,1,.93-1.5,2.19,2.19,0,0,1,1.35-.73,3,3,0,0,1,2.2.38,2.81,2.81,0,0,1,1.34,1.78,2.38,2.38,0,0,1,.08.77,4.76,4.76,0,0,1-.42,1.89,18,18,0,0,1-1.2,2.19,22,22,0,0,1-9.14,8.56,13.65,13.65,0,0,1-6.13,1.47A13.17,13.17,0,0,1,179.6,272.33ZM182,258.21a4.5,4.5,0,0,0,2.47-.81,9.36,9.36,0,0,0,2.16-2,7,7,0,0,0,1.62-3.24,12.53,12.53,0,0,0,.23-1.39,1.73,1.73,0,0,0-.54-1.39,1.07,1.07,0,0,0-.77-.31c-.77,0-1.7.72-2.78,2.16a19.08,19.08,0,0,0-3.7,6.71A4,4,0,0,0,182,258.21Z"/><path d="M222.78,214.18a20.14,20.14,0,0,1,7.25-7.36,19.11,19.11,0,0,1,10-2.74,21.54,21.54,0,0,1,7.67,1.54,22,22,0,0,1,6.83,4,19.34,19.34,0,0,1,5.86,9.18,21.32,21.32,0,0,1,5.7-4.63,15,15,0,0,1,7.18-1.93,12.46,12.46,0,0,1,6.09,1.58,13.5,13.5,0,0,1,4.78,4.59,12.16,12.16,0,0,1,1,1.85,21.06,21.06,0,0,1,6.56-5.63,16.47,16.47,0,0,1,15-.38,13.55,13.55,0,0,1,7.68,12.11,18.72,18.72,0,0,1-.47,4.08q-.45,2.09-1.31,5.09l-.54,2.08-10.25,35.71a34.67,34.67,0,0,0-1.54,8.63q0,5.1,3.54,5.79a3.19,3.19,0,0,1,1.78,1.12,2.91,2.91,0,0,1,.61,1.81,3.08,3.08,0,0,1-.81,2.08,2.76,2.76,0,0,1-2.19.93,2.44,2.44,0,0,1-.7-.08,9,9,0,0,1-3.93-1.77,15,15,0,0,1-2.85-3.4,13.16,13.16,0,0,1-1.55-6.63,22,22,0,0,1,.47-4.63c.3-1.44.77-3.29,1.38-5.55l10.34-35.93c.1-.47.36-1.39.77-2.78a34.1,34.1,0,0,0,.89-3.62,17.43,17.43,0,0,0,.27-2.78A7.61,7.61,0,0,0,307,222.2a7.27,7.27,0,0,0-3.16-2.58,11,11,0,0,0-9.25.27q-5.87,3.17-9,12.26-1.38,4.54-5.2,18.08t-6.52,23.25a2.79,2.79,0,0,1-1.08,1.62,2.88,2.88,0,0,1-1.69.54,3.31,3.31,0,0,1-2.2-.81,2.56,2.56,0,0,1-1-2,3.9,3.9,0,0,1,.15-1l11.41-40.26c.31-1.28.57-2.43.77-3.43a12.33,12.33,0,0,0,.31-2.43,5,5,0,0,0-.31-1.81,10.23,10.23,0,0,0-1.15-2q-2.33-3.56-5.86-3.55A8.5,8.5,0,0,0,269,219.5a15.78,15.78,0,0,0-5,4.4,27.54,27.54,0,0,0-4.2,8.48L248,273.71a2.26,2.26,0,0,1-1,1.35,3.13,3.13,0,0,1-1.77.5,3.67,3.67,0,0,1-2.2-.69,2.22,2.22,0,0,1-1-1.93,3.9,3.9,0,0,1,.16-.92q1.55-5.55,8.94-31.77,2.08-7.41,2.86-10.26a29.17,29.17,0,0,0,.84-3.7c.11-1.24.16-2.11.16-2.62a12.66,12.66,0,0,0-1-5,13.22,13.22,0,0,0-3.51-4.47,15,15,0,0,0-10.18-3.93,14.76,14.76,0,0,0-7,1.73,13.23,13.23,0,0,0-5.21,4.94,13.88,13.88,0,0,0-1.93,7.29,11.85,11.85,0,0,0,1.47,6,10.31,10.31,0,0,0,3.86,4,9.65,9.65,0,0,0,4.93,1.39,7.93,7.93,0,0,0,4.13-1.08,6,6,0,0,0,2.58-2.93,2.9,2.9,0,0,1,1.16-1.31,3.06,3.06,0,0,1,1.62-.46,3.57,3.57,0,0,1,1.23.23,2.52,2.52,0,0,1,1.31,1,3,3,0,0,1,.46,1.66,3.35,3.35,0,0,1-.23,1.23,12.1,12.1,0,0,1-4.82,5.59,13.68,13.68,0,0,1-7.44,2.05,15.2,15.2,0,0,1-8.25-2.32,16.54,16.54,0,0,1-5.86-6.32,18.73,18.73,0,0,1-2.24-8.71A19.83,19.83,0,0,1,222.78,214.18Z"/><path d="M331.63,272.09a9.75,9.75,0,0,1-1.23-1.31,12.35,12.35,0,0,1-3.9,2.43,11.68,11.68,0,0,1-4.2.81,10.64,10.64,0,0,1-5.44-1.46,11.27,11.27,0,0,1-4.05-4.09,11.78,11.78,0,0,1-1.54-6.09,22.21,22.21,0,0,1,.85-5.55,21.35,21.35,0,0,1,4.86-9.18,14.48,14.48,0,0,1,4.2-3.12,11.19,11.19,0,0,1,5.13-1.28,7.82,7.82,0,0,1,2.24.31,9.45,9.45,0,0,1,5.24,3.24l.38-1.23a3.16,3.16,0,0,1,1.12-1.62,2.66,2.66,0,0,1,2.59-.47,3.18,3.18,0,0,1,1.61,1.12,2.89,2.89,0,0,1,.62,1.82,4.35,4.35,0,0,1-.15.84L335.33,263a10.93,10.93,0,0,0-.46,2.7,2.51,2.51,0,0,0,.69,1.85,2.55,2.55,0,0,0,1.62.54,3.34,3.34,0,0,0,1.54-.38,3.77,3.77,0,0,0,1.43-1.43,15,15,0,0,0,1.2-2.81l1.54-5a2.73,2.73,0,0,1,1-1.61,2.86,2.86,0,0,1,1.81-.62,4.29,4.29,0,0,1,.85.15,3.16,3.16,0,0,1,1.62,1.12,2.83,2.83,0,0,1,.62,1.74,2.75,2.75,0,0,1-.16.84l-1.62,5.32a18.52,18.52,0,0,1-2,4.48,8.92,8.92,0,0,1-3.74,3.31,9.31,9.31,0,0,1-4.09.93A8.47,8.47,0,0,1,331.63,272.09Zm-5.24-5.78a12.76,12.76,0,0,0,3.23-5.24l.85-2.86a17.77,17.77,0,0,0,.31-2.62,7.65,7.65,0,0,0-1.23-4.47,3.79,3.79,0,0,0-3.24-1.77,5.64,5.64,0,0,0-2.58.69,8.45,8.45,0,0,0-2.36,1.77,16.19,16.19,0,0,0-3.47,6.71,15.32,15.32,0,0,0-.61,3.78,6.75,6.75,0,0,0,.23,1.85,4.87,4.87,0,0,0,2.31,3,5.59,5.59,0,0,0,2.7.77,6.84,6.84,0,0,0,1.08-.15A6.68,6.68,0,0,0,326.39,266.31Z"/><path d="M359.24,272.09a8.44,8.44,0,0,1-2.28-3,8.86,8.86,0,0,1-.81-3.71,9.69,9.69,0,0,1,.47-2.93c.61-2.05,1.07-3.55,1.38-4.51l.54-1.65a5.76,5.76,0,0,0,.31-1.86,2.61,2.61,0,0,0-.46-1.61,6.12,6.12,0,0,0-2.74-1.93,16.53,16.53,0,0,0-4-1.08l-3.7,12.34a3.71,3.71,0,0,1-1.16,1.62,2.74,2.74,0,0,1-1.77.61,4.41,4.41,0,0,1-.85-.15,3,3,0,0,1-1.58-1.12,3.07,3.07,0,0,1-.58-1.81,4.55,4.55,0,0,1,.16-.85l4.47-15a2.94,2.94,0,0,1,1.12-1.58,3,3,0,0,1,1.81-.58q10.26.78,13.73,5.78a8.86,8.86,0,0,1,1.62,5.32,11.28,11.28,0,0,1-.62,3.71l-1.85,6.09a3.36,3.36,0,0,0-.15,1.15,2.58,2.58,0,0,0,.77,1.93,2.49,2.49,0,0,0,1.85.77,3.21,3.21,0,0,0,1.46-.38,3.12,3.12,0,0,0,1.43-1.58A31.52,31.52,0,0,0,369,263l1.47-5.09a3.16,3.16,0,0,1,1.11-1.61,2.66,2.66,0,0,1,2.59-.47,3.2,3.2,0,0,1,1.62,1.12,2.93,2.93,0,0,1,.61,1.81,4.29,4.29,0,0,1-.15.85c-.15.52-.38,1.34-.69,2.47s-.6,2.06-.85,2.78a25.63,25.63,0,0,1-2.16,5,8.34,8.34,0,0,1-3.55,3.27,9.46,9.46,0,0,1-4.16.93A8.47,8.47,0,0,1,359.24,272.09Z"/><path d="M387.23,271.63a9.91,9.91,0,0,1-6.55,2.47,10.38,10.38,0,0,1-3.94-.85,2.95,2.95,0,0,1-1.77-2.78,3.17,3.17,0,0,1,.23-1.23,2.62,2.62,0,0,1,1.12-1.27,3.06,3.06,0,0,1,1.66-.5,2.78,2.78,0,0,1,1.15.23,3.9,3.9,0,0,0,1.55.31,4.15,4.15,0,0,0,3-1.31,7.54,7.54,0,0,0,1.74-2.47,6.92,6.92,0,0,0,.65-2.78,5,5,0,0,0-.23-1.54,7.6,7.6,0,0,0-1.77-2.62q-1.24-1.23-3.55-3.09c-.1,0-.85-.64-2.24-1.77l-2.16,7.79a3.2,3.2,0,0,1-1.07,1.62,2.91,2.91,0,0,1-1.86.61,2.84,2.84,0,0,1-.77-.07,2.77,2.77,0,0,1-1.62-1.08,3.09,3.09,0,0,1-.61-1.85,2.8,2.8,0,0,1,.07-.77l3.63-13.27a2.93,2.93,0,0,1,1.12-1.5,3,3,0,0,1,1.81-.58,3.08,3.08,0,0,1,2.62,1.39,20.52,20.52,0,0,0,4.78,4.78,48.48,48.48,0,0,1,4.59,4,11.84,11.84,0,0,1,2.66,4.32,9.14,9.14,0,0,1,.62,3.55,12.86,12.86,0,0,1-1.16,5.39,3.26,3.26,0,0,0,2.62,1.31,2.93,2.93,0,0,0,1.31-.3,4,4,0,0,0,1.47-1.47,12.63,12.63,0,0,0,1.16-2.78l1.54-5.09a3.17,3.17,0,0,1,1.08-1.61,2.69,2.69,0,0,1,1.77-.62,4.29,4.29,0,0,1,.85.15,3.16,3.16,0,0,1,1.62,1.12,2.94,2.94,0,0,1,.62,1.81,4.55,4.55,0,0,1-.16.85l-1.54,5.24a24,24,0,0,1-2,4.56,8.57,8.57,0,0,1-3.74,3.23,8.85,8.85,0,0,1-4,.93A9,9,0,0,1,387.23,271.63Z"/><path d="M395.4,271a4,4,0,0,1,.16-1l13.8-45.8a7.72,7.72,0,0,0,.27-.89,5.51,5.51,0,0,1,.5-1.27,2.45,2.45,0,0,1,.77-.85,2.91,2.91,0,0,1,1.7-.54,3.12,3.12,0,0,1,1.93.65,2.92,2.92,0,0,1,1.08,1.66l.07.54a6.82,6.82,0,0,1-.3,1.7l-5.79,19a13.61,13.61,0,0,1,5-1,8.69,8.69,0,0,1,7.1,3.09,8.43,8.43,0,0,1,1.77,5,12.15,12.15,0,0,1-.58,3.59c-.38,1.26-.63,2.12-.73,2.58-.61,2-1.15,4.14-1.62,6.4a7.18,7.18,0,0,0-.31,1.85,2.24,2.24,0,0,0,.54,1.54,2.91,2.91,0,0,0,2.16.77,3.44,3.44,0,0,0,1.93-.46,3.3,3.3,0,0,0,1.35-1.39,13.66,13.66,0,0,0,.81-1.77c.21-.56.33-.93.39-1.08l1.38-4.86a3.2,3.2,0,0,1,1.12-1.62,2.93,2.93,0,0,1,1.81-.61,3.79,3.79,0,0,1,.85.07,3.22,3.22,0,0,1,1.35.81,2.66,2.66,0,0,1,.74,1.35,3,3,0,0,1,.07.7,6.4,6.4,0,0,1-.31,1.54c-.1.41-.37,1.43-.81,3a23.36,23.36,0,0,1-1.58,4.32,12.72,12.72,0,0,1-2.16,3.2,8.33,8.33,0,0,1-3.12,2.09,10.65,10.65,0,0,1-3.82.69,9.67,9.67,0,0,1-3.54-.66,7.89,7.89,0,0,1-5.09-7.59,20.24,20.24,0,0,1,.69-4.78c.41-1.85.87-3.58,1.39-5.17l.77-2.85a5.27,5.27,0,0,0,.31-1.55,2.09,2.09,0,0,0-.46-1.38c-.42-.57-1.29-.85-2.63-.85a6.82,6.82,0,0,0-5,2.39,21,21,0,0,0-3.43,5.63q-.86,2-2.08,6l-.77,2.55c-.52,1.85-.93,3.24-1.24,4.16l-.27,1.12a4.71,4.71,0,0,1-.58,1.43,2.71,2.71,0,0,1-1.12,1.08,3.24,3.24,0,0,1-1.5.38,2.65,2.65,0,0,1-2.47-1.31A2.89,2.89,0,0,1,395.4,271Z"/><path d="M442.6,272.75a3.56,3.56,0,0,1-.47-1.81,3.76,3.76,0,0,1,.08-.85l5-16.66a8.18,8.18,0,0,0,.31-1.85,2.61,2.61,0,0,0-.77-1.93,3.11,3.11,0,0,0-2.16-.69,7.1,7.1,0,0,0-3.78,1.16,11,11,0,0,0-3.74,4.39,51,51,0,0,0-2.66,7l-3.31,10.41a2.86,2.86,0,0,1-1.16,1.58,3,3,0,0,1-1.77.58,2.79,2.79,0,0,1-2.08-.85,2.71,2.71,0,0,1-.85-2,5.81,5.81,0,0,1,.27-1.62,16.28,16.28,0,0,1,.65-1.85l2.86-9.49,3.62-12.18a9.91,9.91,0,0,1,.54-1.55,2.84,2.84,0,0,1,2.55-1.31,3.32,3.32,0,0,1,1.61.43,2.62,2.62,0,0,1,1.16,1.27,12.33,12.33,0,0,1,5.86-1.47,10.07,10.07,0,0,1,4.13.85,8.07,8.07,0,0,1,3.2,2.63,18.28,18.28,0,0,1,4.55-2.59,13.67,13.67,0,0,1,5-1,10.72,10.72,0,0,1,4.86,1.15,7.86,7.86,0,0,1,3.16,2.82,7.21,7.21,0,0,1,1.08,3.89,5.49,5.49,0,0,1-.08,1,37.11,37.11,0,0,1-1.15,4.62q-.39,1.16-.78,2.7a31.37,31.37,0,0,0-1.23,6.4,1.75,1.75,0,0,0,.85,1.47,3.5,3.5,0,0,0,1.85.46,2.87,2.87,0,0,0,2.12-.73,10.24,10.24,0,0,0,1.58-2.35,42.42,42.42,0,0,0,2.08-6.1,4.87,4.87,0,0,1,1.16-1.92,2.41,2.41,0,0,1,1.77-.78,4.55,4.55,0,0,1,.85.16,3.06,3.06,0,0,1,2.16,2.16l.08.54a3.4,3.4,0,0,1-.16,1c-.1.36-.18.62-.23.77-.2.57-.46,1.42-.77,2.55a45.06,45.06,0,0,1-1.73,5,10.12,10.12,0,0,1-2.36,3.31,9.32,9.32,0,0,1-6.55,2.4,10.14,10.14,0,0,1-4-.81,7.71,7.71,0,0,1-3.13-2.43,7.85,7.85,0,0,1-1.61-5.09,16.17,16.17,0,0,1,.3-2.93c.21-1.08.44-2.11.7-3.09q2.16-7.64,2.23-8.25V251a1.75,1.75,0,0,0-1-1.85,4.46,4.46,0,0,0-1.77-.31A8.93,8.93,0,0,0,460,249a9.94,9.94,0,0,0-4.4,2.19,8.8,8.8,0,0,0-2.7,4.05L448,271.86a3.16,3.16,0,0,1-1.12,1.62,3,3,0,0,1-1.82.62,3.23,3.23,0,0,1-1.07-.23A2.44,2.44,0,0,1,442.6,272.75Z"/><path d="M495.5,272.09a10.36,10.36,0,0,1-1.24-1.31,12.2,12.2,0,0,1-3.89,2.43,11.68,11.68,0,0,1-4.2.81,10.64,10.64,0,0,1-5.44-1.46,11.27,11.27,0,0,1-4.05-4.09,11.78,11.78,0,0,1-1.54-6.09,22.21,22.21,0,0,1,.85-5.55,21.35,21.35,0,0,1,4.86-9.18,14.48,14.48,0,0,1,4.2-3.12,11.19,11.19,0,0,1,5.13-1.28,7.7,7.7,0,0,1,2.23.31,9.44,9.44,0,0,1,5.25,3.24l.38-1.23a3.16,3.16,0,0,1,1.12-1.62,2.83,2.83,0,0,1,1.74-.62,2.71,2.71,0,0,1,.84.15,3.16,3.16,0,0,1,1.62,1.12,2.89,2.89,0,0,1,.62,1.82,4.35,4.35,0,0,1-.15.84L499.2,263a10.93,10.93,0,0,0-.46,2.7,2.51,2.51,0,0,0,.69,1.85,2.55,2.55,0,0,0,1.62.54,3.37,3.37,0,0,0,1.54-.38,3.77,3.77,0,0,0,1.43-1.43,14.44,14.44,0,0,0,1.19-2.81l1.55-5a2.73,2.73,0,0,1,1-1.61,2.86,2.86,0,0,1,1.81-.62,4.41,4.41,0,0,1,.85.15,3.16,3.16,0,0,1,1.62,1.12,2.82,2.82,0,0,1,.61,1.74,2.71,2.71,0,0,1-.15.84l-1.62,5.32a18.16,18.16,0,0,1-2,4.48,8.8,8.8,0,0,1-3.74,3.31,9.24,9.24,0,0,1-4.08.93A8.47,8.47,0,0,1,495.5,272.09Zm-5.25-5.78a12.67,12.67,0,0,0,3.24-5.24l.85-2.86a17.77,17.77,0,0,0,.31-2.62,7.65,7.65,0,0,0-1.23-4.47,3.8,3.8,0,0,0-3.24-1.77,5.68,5.68,0,0,0-2.59.69,8.4,8.4,0,0,0-2.35,1.77,16.19,16.19,0,0,0-3.47,6.71,15.41,15.41,0,0,0-.62,3.78,6.74,6.74,0,0,0,.24,1.85,4.68,4.68,0,0,0,.84,1.74,4.57,4.57,0,0,0,1.47,1.27,5.59,5.59,0,0,0,2.7.77,6.84,6.84,0,0,0,1.08-.15A6.59,6.59,0,0,0,490.25,266.31Z"/><path d="M507.26,271.17a7.81,7.81,0,0,1-2-5.09,14.15,14.15,0,0,1,.23-3.24c.21-1.08.54-2.42,1-4l10-33.78.62-2.23a3.69,3.69,0,0,1,1.16-1.54,2.69,2.69,0,0,1,1.77-.62,3.12,3.12,0,0,1,3,3.39,8,8,0,0,1-.43,1.74c-.23.64-.4,1.11-.5,1.42l-10.1,34.24a13.36,13.36,0,0,0-.85,3.78,4.63,4.63,0,0,0,.15,1.08,2.1,2.1,0,0,0,.89,1.27,2.66,2.66,0,0,0,1.5.43,3.46,3.46,0,0,0,2.93-1.62,12.8,12.8,0,0,0,1.16-2.55l1.54-5.32a4.12,4.12,0,0,1,1.16-1.66,2.59,2.59,0,0,1,1.7-.65,4.54,4.54,0,0,1,.85.15,3,3,0,0,1,1.58,1.12,3.1,3.1,0,0,1,.58,1.81,3.69,3.69,0,0,1-.08.85c-.47,1.75-1,3.52-1.62,5.32a21.06,21.06,0,0,1-1.54,3.7,9.67,9.67,0,0,1-3.55,3.63,9.35,9.35,0,0,1-4.78,1.31,12.92,12.92,0,0,1-1.62-.15A8.6,8.6,0,0,1,507.26,271.17Z"/><path d="M520,271.17a7.8,7.8,0,0,1-2-5.09,13.11,13.11,0,0,1,.23-3.24c.2-1.08.54-2.42,1-4l10-33.78.62-2.23a3.77,3.77,0,0,1,1.16-1.54,2.69,2.69,0,0,1,1.77-.62,3.1,3.1,0,0,1,3,3.39,7,7,0,0,1-.43,1.74c-.23.64-.39,1.11-.5,1.42l-10.1,34.24a13.72,13.72,0,0,0-.85,3.78,4.21,4.21,0,0,0,.16,1.08,2.06,2.06,0,0,0,.89,1.27,2.62,2.62,0,0,0,1.5.43,3.17,3.17,0,0,0,1.23-.23,3.23,3.23,0,0,0,1.7-1.39,12.82,12.82,0,0,0,1.15-2.55l1.55-5.32a4,4,0,0,1,1.15-1.66,2.61,2.61,0,0,1,1.7-.65,4.29,4.29,0,0,1,.85.15,3,3,0,0,1,1.58,1.12,3,3,0,0,1,.58,1.81,3.69,3.69,0,0,1-.08.85q-.69,2.63-1.62,5.32a21.06,21.06,0,0,1-1.54,3.7,9.67,9.67,0,0,1-3.55,3.63,9.32,9.32,0,0,1-4.78,1.31,12.92,12.92,0,0,1-1.62-.15A8.63,8.63,0,0,1,520,271.17Z"/><path d="M534.21,269.94a12.46,12.46,0,0,1-2.47-7.79,16,16,0,0,1,.46-3.78q2.24-10.73,9.41-14a11.21,11.21,0,0,1,4.94-1.08,11.35,11.35,0,0,1,4.66,1A10,10,0,0,1,555,247a12.34,12.34,0,0,1,2.78,6.79,2.67,2.67,0,0,0,2.47,1,5,5,0,0,0,1.54-.23q1.46-.54,2.7-3.39a2.77,2.77,0,0,1,2.47-1.7,2.41,2.41,0,0,1,.69.08,2.58,2.58,0,0,1,2.24,2.7,7.23,7.23,0,0,1-.7,2.93,8,8,0,0,1-1.62,2.46,9.08,9.08,0,0,1-3.31,2.43,9.73,9.73,0,0,1-3.94.89,5.2,5.2,0,0,1-3.16-.85,24.32,24.32,0,0,1-2.93,6.67,18.14,18.14,0,0,1-4.9,5.25,10.76,10.76,0,0,1-6.36,2A9.7,9.7,0,0,1,541,274,10.54,10.54,0,0,1,534.21,269.94Zm8.63-1.86a5.71,5.71,0,0,0,3.94-1.62,12.88,12.88,0,0,0,3.28-4.39,17.62,17.62,0,0,0,1.58-5.48,9.44,9.44,0,0,0,.07-1.38q0-4.56-3.39-5.56a5.51,5.51,0,0,0-1.93-.38,5.83,5.83,0,0,0-3.55,1.27,8.13,8.13,0,0,0-2.54,3.05,22.91,22.91,0,0,0-2,5.24,13.74,13.74,0,0,0-.55,3.62,6.8,6.8,0,0,0,.16,1.7,5.65,5.65,0,0,0,1.31,2.31,4.85,4.85,0,0,0,2.16,1.39A5.39,5.39,0,0,0,542.84,268.08Z"/><path d="M594.28,272.09l-1-1a12.23,12.23,0,0,1-3.47,2.2,9.91,9.91,0,0,1-3.86.81,8.7,8.7,0,0,1-4.32-1.12,9.94,9.94,0,0,1-3.08-2.51,13.37,13.37,0,0,1-3.74,2.63,9.92,9.92,0,0,1-4.28,1,9,9,0,0,1-4.82-1.35,10.06,10.06,0,0,1-3.51-3.59,9.17,9.17,0,0,1-1.31-4.7,8,8,0,0,1,.38-2.62q1.32-4.24,2.78-9.33c1-3.4,1.65-5.76,2-7.1a3.13,3.13,0,0,1,1.11-1.62,2.94,2.94,0,0,1,1.82-.61,4.35,4.35,0,0,1,.84.15,3.11,3.11,0,0,1,1.59,1.08,2.9,2.9,0,0,1,.57,1.77,4.31,4.31,0,0,1-.15.93q-.54,2-2,7.09t-2.77,9.33a4,4,0,0,0-.16.85,3.5,3.5,0,0,0,.7,2.05,3.77,3.77,0,0,0,1.69,1.35,3.43,3.43,0,0,0,1.32.23,4.49,4.49,0,0,0,2.35-.74,6.1,6.1,0,0,0,2-1.89,24.9,24.9,0,0,0,2.39-5.7l4.17-14.27a3.14,3.14,0,0,1,1.12-1.62,2.91,2.91,0,0,1,1.81-.61,4.41,4.41,0,0,1,.85.15,3.21,3.21,0,0,1,1.54,1.12,2.92,2.92,0,0,1,.62,1.81,4.55,4.55,0,0,1-.16.85l-4.16,14.34c-.05.26-.18.74-.39,1.43a6.72,6.72,0,0,0-.31,1.81,3.2,3.2,0,0,0,2.32,3.09A3.8,3.8,0,0,0,586,268a4.49,4.49,0,0,0,2.35-.74,6.13,6.13,0,0,0,2-1.89,40.65,40.65,0,0,0,2.62-6.47l3.93-13.5a3.33,3.33,0,0,1,1.08-1.62,2.78,2.78,0,0,1,1.77-.61,4.29,4.29,0,0,1,.85.15,3.16,3.16,0,0,1,1.62,1.12,2.92,2.92,0,0,1,.62,1.81,3.83,3.83,0,0,1-.16.85l-5,17.12a4.7,4.7,0,0,0-.23,1.46,2.38,2.38,0,0,0,.77,1.85,2.68,2.68,0,0,0,1.7.54,3.21,3.21,0,0,0,1.46-.38,3.73,3.73,0,0,0,1.51-1.39,13.76,13.76,0,0,0,1.19-2.85l1.47-5a3.12,3.12,0,0,1,1.12-1.61,2.86,2.86,0,0,1,1.81-.62,4.54,4.54,0,0,1,.85.15,3.21,3.21,0,0,1,1.54,1.12,2.83,2.83,0,0,1,.62,1.74,4.64,4.64,0,0,1-.16.84c-.15.52-.38,1.35-.69,2.51s-.59,2.1-.85,2.81a29.3,29.3,0,0,1-2.08,4.56,8.31,8.31,0,0,1-3.63,3.23,9.43,9.43,0,0,1-4.16.93A8.47,8.47,0,0,1,594.28,272.09Z"/><path d="M652.27,288.6A24.62,24.62,0,0,1,637.62,284a22.75,22.75,0,0,1-6.91-7.94,21,21,0,0,1-2.5-9.87,11,11,0,0,1,.08-1.62,18.11,18.11,0,0,1,1.65-5.9,19.88,19.88,0,0,1,3.51-5.21,16.45,16.45,0,0,1,5.25-3.78,15.54,15.54,0,0,1,6-1.38,17,17,0,0,1,6.52,1.11,15.06,15.06,0,0,1,5.36,3.44,13.58,13.58,0,0,1,4.16,9.94,2.63,2.63,0,0,1-1,2.12,3.35,3.35,0,0,1-2.2.81,3,3,0,0,1-2-.77,2.7,2.7,0,0,1-.89-2.16,7.53,7.53,0,0,0-2.31-5.63A9.4,9.4,0,0,0,649,255a11.81,11.81,0,0,0-4.16-.73,9.44,9.44,0,0,0-5.06,1.66A12.09,12.09,0,0,0,636,260a13.08,13.08,0,0,0-1.74,5.09l-.08,1.15a14.65,14.65,0,0,0,1.86,7.06,16.74,16.74,0,0,0,5.08,5.74,18.59,18.59,0,0,0,11.11,3.47,19.83,19.83,0,0,0,10.33-2.85,18.75,18.75,0,0,0,6.63-6.55,16.69,16.69,0,0,0,2.4-8.72c0-.46-.06-1.2-.16-2.23a15.67,15.67,0,0,0-3.05-7.64,56.11,56.11,0,0,0-7.21-7.55q-3.93-3.63-6.36-6.33a24.78,24.78,0,0,1-4.05-6.17,13.48,13.48,0,0,1-1.31-6.09,15.85,15.85,0,0,1,1.24-6.25,15.6,15.6,0,0,1,3.74-5.55,15.19,15.19,0,0,1,5.51-3.39,13.09,13.09,0,0,1,12.49,2.24,14.2,14.2,0,0,1,4,5,13.75,13.75,0,0,1,1.43,6.09,8.56,8.56,0,0,1-.08,1.31,3,3,0,0,1-1.12,2,3.1,3.1,0,0,1-2.19.69,2.93,2.93,0,0,1-2-1.12,3.06,3.06,0,0,1-.69-2.2,8.19,8.19,0,0,0-.66-3.89,7.62,7.62,0,0,0-2.43-3.12,7.36,7.36,0,0,0-4.63-1.7,6.94,6.94,0,0,0-2.23.39,8.73,8.73,0,0,0-3.28,2.08,10.34,10.34,0,0,0-2.35,3.47,9.42,9.42,0,0,0-.77,3.85,7.76,7.76,0,0,0,.77,3.55,20.34,20.34,0,0,0,3.43,5.09c1.41,1.54,3.28,3.39,5.59,5.55,2.47,2.32,4.45,4.28,5.94,5.9a27.76,27.76,0,0,1,4,5.75,20.38,20.38,0,0,1,2.24,7.32,22.13,22.13,0,0,1,.15,3,23.29,23.29,0,0,1-2.7,11,24.45,24.45,0,0,1-9.25,9.49A26,26,0,0,1,652.27,288.6Z"/><path d="M682,271a4.47,4.47,0,0,1,.15-1l13.81-45.8a7.72,7.72,0,0,0,.27-.89,4.74,4.74,0,0,1,.5-1.27,2.35,2.35,0,0,1,.77-.85,2.89,2.89,0,0,1,1.7-.54,3.07,3.07,0,0,1,1.92.65,2.83,2.83,0,0,1,1.08,1.66l.08.54a6.48,6.48,0,0,1-.31,1.7l-5.78,19a13.57,13.57,0,0,1,5-1,8.7,8.7,0,0,1,7.1,3.09,8.43,8.43,0,0,1,1.77,5,12.15,12.15,0,0,1-.58,3.59c-.38,1.26-.63,2.12-.73,2.58-.62,2-1.16,4.14-1.62,6.4a6.77,6.77,0,0,0-.31,1.85,2.24,2.24,0,0,0,.54,1.54,2.88,2.88,0,0,0,2.16.77,3.47,3.47,0,0,0,1.93-.46,3.42,3.42,0,0,0,1.35-1.39,13.66,13.66,0,0,0,.81-1.77l.38-1.08,1.39-4.86a3.2,3.2,0,0,1,1.12-1.62,2.91,2.91,0,0,1,1.81-.61,3.85,3.85,0,0,1,.85.07,3.35,3.35,0,0,1,1.35.81,2.64,2.64,0,0,1,.73,1.35,2.44,2.44,0,0,1,.08.7,7,7,0,0,1-.31,1.54c-.1.41-.37,1.43-.81,3a24.1,24.1,0,0,1-1.58,4.32,13,13,0,0,1-2.16,3.2,8.41,8.41,0,0,1-3.12,2.09,10.65,10.65,0,0,1-3.82.69,9.72,9.72,0,0,1-3.55-.66,7.92,7.92,0,0,1-5.09-7.59,19.81,19.81,0,0,1,.7-4.78c.41-1.85.87-3.58,1.38-5.17l.78-2.85a5.21,5.21,0,0,0,.3-1.55,2,2,0,0,0-.46-1.38c-.41-.57-1.28-.85-2.62-.85a6.81,6.81,0,0,0-5,2.39,21.31,21.31,0,0,0-3.44,5.63c-.56,1.34-1.26,3.34-2.08,6l-.77,2.55c-.51,1.85-.92,3.24-1.23,4.16-.06.21-.14.58-.27,1.12a4.71,4.71,0,0,1-.58,1.43,2.71,2.71,0,0,1-1.12,1.08,3.27,3.27,0,0,1-1.5.38,2.64,2.64,0,0,1-2.47-1.31A2.89,2.89,0,0,1,682,271Z"/><path d="M717.43,269.94a12.46,12.46,0,0,1-2.47-7.79,16,16,0,0,1,.47-3.78q2.24-10.73,9.4-14a11.21,11.21,0,0,1,4.94-1.08,11.43,11.43,0,0,1,4.67,1,10,10,0,0,1,3.73,2.81,12.34,12.34,0,0,1,2.78,6.79,2.67,2.67,0,0,0,2.47,1,5,5,0,0,0,1.54-.23q1.47-.54,2.7-3.39a2.78,2.78,0,0,1,2.47-1.7,2.31,2.31,0,0,1,.69.08,2.58,2.58,0,0,1,2.24,2.7,7.07,7.07,0,0,1-.7,2.93,8,8,0,0,1-1.62,2.46,9.08,9.08,0,0,1-3.31,2.43,9.72,9.72,0,0,1-3.93.89,5.23,5.23,0,0,1-3.17-.85,24,24,0,0,1-2.93,6.67,18,18,0,0,1-4.89,5.25,10.81,10.81,0,0,1-6.37,2,9.52,9.52,0,0,1-1.92-.15A10.59,10.59,0,0,1,717.43,269.94Zm8.64-1.86a5.69,5.69,0,0,0,3.93-1.62,12.75,12.75,0,0,0,3.28-4.39,17.36,17.36,0,0,0,1.58-5.48,9.14,9.14,0,0,0,.08-1.38c0-3-1.14-4.89-3.4-5.56a5.5,5.5,0,0,0-1.92-.38,5.81,5.81,0,0,0-3.55,1.27,8.25,8.25,0,0,0-2.55,3.05,22.91,22.91,0,0,0-2,5.24,14.12,14.12,0,0,0-.54,3.62,6.91,6.91,0,0,0,.15,1.7,5.77,5.77,0,0,0,1.31,2.31,4.85,4.85,0,0,0,2.16,1.39A5.51,5.51,0,0,0,726.07,268.08Z"/><path d="M747.2,269.94a12.46,12.46,0,0,1-2.47-7.79,16,16,0,0,1,.46-3.78q2.23-10.73,9.41-14a11.17,11.17,0,0,1,4.93-1.08,11.36,11.36,0,0,1,4.67,1,10,10,0,0,1,3.74,2.81,12.41,12.41,0,0,1,2.78,6.79,2.66,2.66,0,0,0,2.46,1,5,5,0,0,0,1.55-.23q1.46-.54,2.7-3.39a2.76,2.76,0,0,1,2.46-1.7,2.44,2.44,0,0,1,.7.08,2.57,2.57,0,0,1,2.23,2.7,7.21,7.21,0,0,1-.69,2.93,8,8,0,0,1-1.62,2.46,9.12,9.12,0,0,1-3.32,2.43,9.69,9.69,0,0,1-3.93.89,5.2,5.2,0,0,1-3.16-.85,24.62,24.62,0,0,1-2.93,6.67,18.14,18.14,0,0,1-4.9,5.25,10.8,10.8,0,0,1-6.36,2A9.63,9.63,0,0,1,754,274,10.54,10.54,0,0,1,747.2,269.94Zm8.63-1.86a5.73,5.73,0,0,0,3.94-1.62,12.85,12.85,0,0,0,3.27-4.39,17.1,17.1,0,0,0,1.58-5.48,9.14,9.14,0,0,0,.08-1.38q0-4.56-3.39-5.56a5.51,5.51,0,0,0-1.93-.38,5.83,5.83,0,0,0-3.55,1.27,8.13,8.13,0,0,0-2.54,3.05,23.36,23.36,0,0,0-2,5.24,14.12,14.12,0,0,0-.54,3.62,6.35,6.35,0,0,0,.16,1.7,5.54,5.54,0,0,0,1.31,2.31,4.8,4.8,0,0,0,2.16,1.39A5.39,5.39,0,0,0,755.83,268.08Z"/><path d="M779.58,273.41a9,9,0,0,1-3.08-2,8.83,8.83,0,0,1-2.62-6.63,23.16,23.16,0,0,1,1.31-6.87l2.47-8.48h-.78a2.77,2.77,0,0,1-2.08-.88,3,3,0,0,1-.85-2.12,2.9,2.9,0,0,1,2.93-2.94h2.55l6.25-20.66a2.83,2.83,0,0,1,1.07-1.62,2.91,2.91,0,0,1,1.7-.54,3.33,3.33,0,0,1,2.2.81,2.64,2.64,0,0,1,1,2.12,4.33,4.33,0,0,1-.15.92l-5.71,19h1.7a2.86,2.86,0,0,1,2.08.85,2.83,2.83,0,0,1,.85,2.09,2.94,2.94,0,0,1-.85,2.12,2.77,2.77,0,0,1-2.08.88H784l-3,10.18a19.47,19.47,0,0,0-1.08,5.17,3.22,3.22,0,0,0,.85,2.39,3.34,3.34,0,0,0,2.47.85,4.58,4.58,0,0,0,2.08-.47,3.93,3.93,0,0,0,1.85-1.88,24.82,24.82,0,0,0,1.39-3.44l1-3.16a3.08,3.08,0,0,1,1.08-1.58,2.91,2.91,0,0,1,1.77-.58,3.88,3.88,0,0,1,.93.16,3.11,3.11,0,0,1,1.54,1.12,2.92,2.92,0,0,1,.62,1.81,4.54,4.54,0,0,1-.15.85l-1,3.23a25.71,25.71,0,0,1-2.27,5.17,9.75,9.75,0,0,1-4,3.7,10.62,10.62,0,0,1-4.78,1.16A10.18,10.18,0,0,1,779.58,273.41Z"/><path d="M794.89,272.33a11.43,11.43,0,0,1-4.66-4.79,11.2,11.2,0,0,1-1.08-5.09,19.35,19.35,0,0,1,1-6,28.69,28.69,0,0,1,2.54-5.71,23.18,23.18,0,0,1,4.44-5.47,8.11,8.11,0,0,1,5.51-2.24,5.71,5.71,0,0,1,1.62.23,7.42,7.42,0,0,1,4.24,3.09,7.69,7.69,0,0,1,1.31,4.55,11.41,11.41,0,0,1-.61,3.62,15.65,15.65,0,0,1-4.67,6.87,10.8,10.8,0,0,1-7.21,2.93,7.67,7.67,0,0,1-1.93-.24,4.58,4.58,0,0,0,2.24,2.9,7.52,7.52,0,0,0,3.85,1,5.18,5.18,0,0,0,1.55-.16,11.68,11.68,0,0,0,5-2.58,16.69,16.69,0,0,0,3.78-4.59c.15-.31.37-.77.65-1.39a6.22,6.22,0,0,1,.93-1.5,2.19,2.19,0,0,1,1.35-.73,3,3,0,0,1,2.2.38,2.86,2.86,0,0,1,1.35,1.78,2.8,2.8,0,0,1,.07.77,4.76,4.76,0,0,1-.42,1.89,16.68,16.68,0,0,1-1.2,2.19,21.1,21.1,0,0,1-3.7,4.71,21.33,21.33,0,0,1-5.43,3.85,13.73,13.73,0,0,1-6.14,1.47A13.17,13.17,0,0,1,794.89,272.33Zm2.43-14.12a4.48,4.48,0,0,0,2.47-.81,9.36,9.36,0,0,0,2.16-2,7,7,0,0,0,1.62-3.24,12.53,12.53,0,0,0,.23-1.39,1.73,1.73,0,0,0-.54-1.39,1.07,1.07,0,0,0-.77-.31c-.77,0-1.7.72-2.78,2.16A19.08,19.08,0,0,0,796,258,4,4,0,0,0,797.32,258.21Z"/><path d="M829.25,272.09a8.44,8.44,0,0,1-2.28-3,8.86,8.86,0,0,1-.81-3.71,9.68,9.68,0,0,1,.46-2.93c.62-2.05,1.08-3.55,1.39-4.51l.54-1.65a5.76,5.76,0,0,0,.31-1.86,2.67,2.67,0,0,0-.46-1.61,6.12,6.12,0,0,0-2.74-1.93,16.53,16.53,0,0,0-4-1.08l-3.7,12.34a3.8,3.8,0,0,1-1.16,1.62,2.74,2.74,0,0,1-1.77.61,4.29,4.29,0,0,1-.85-.15,2.94,2.94,0,0,1-1.58-1.12,3,3,0,0,1-.58-1.81,4.29,4.29,0,0,1,.15-.85l4.48-15a2.89,2.89,0,0,1,1.12-1.58,3,3,0,0,1,1.81-.58q10.25.78,13.72,5.78a8.86,8.86,0,0,1,1.62,5.32,11.28,11.28,0,0,1-.61,3.71l-1.85,6.09a3.09,3.09,0,0,0-.16,1.15,2.61,2.61,0,0,0,.77,1.93,2.51,2.51,0,0,0,1.85.77,3.25,3.25,0,0,0,1.47-.38,3.16,3.16,0,0,0,1.43-1.58c.38-.8.8-1.84,1.27-3.13l1.46-5.09a3.18,3.18,0,0,1,1.12-1.61,2.77,2.77,0,0,1,1.74-.62,2.71,2.71,0,0,1,.84.15,3.23,3.23,0,0,1,1.63,1.12,2.93,2.93,0,0,1,.61,1.81,4.29,4.29,0,0,1-.15.85c-.16.52-.39,1.34-.7,2.47s-.59,2.06-.84,2.78a25.63,25.63,0,0,1-2.16,5,8.34,8.34,0,0,1-3.55,3.27,9.5,9.5,0,0,1-4.17.93A8.44,8.44,0,0,1,829.25,272.09Z"/><path d="M842.78,214.18a20.07,20.07,0,0,1,7.25-7.36,19,19,0,0,1,10-2.74,21.55,21.55,0,0,1,7.68,1.54,22.07,22.07,0,0,1,6.82,4,19.34,19.34,0,0,1,5.86,9.18,21.2,21.2,0,0,1,5.71-4.63,14.91,14.91,0,0,1,7.17-1.93,12.4,12.4,0,0,1,6.09,1.58,13.42,13.42,0,0,1,4.78,4.59,12.16,12.16,0,0,1,1,1.85,21.17,21.17,0,0,1,6.56-5.63,16,16,0,0,1,7.87-2,16.22,16.22,0,0,1,7.13,1.62,13.52,13.52,0,0,1,7.67,12.11,18.7,18.7,0,0,1-.46,4.08q-.46,2.09-1.31,5.09l-.54,2.08-10.26,35.71a34.67,34.67,0,0,0-1.54,8.63q0,5.1,3.55,5.79a3.13,3.13,0,0,1,1.77,1.12,2.92,2.92,0,0,1,.62,1.81,3.08,3.08,0,0,1-.81,2.08,2.76,2.76,0,0,1-2.2.93,2.31,2.31,0,0,1-.69-.08,9,9,0,0,1-3.94-1.77,15.52,15.52,0,0,1-2.85-3.4,13.16,13.16,0,0,1-1.54-6.63,22,22,0,0,1,.46-4.63q.46-2.16,1.39-5.55l10.33-35.93c.1-.47.36-1.39.77-2.78a34.1,34.1,0,0,0,.89-3.62,16.34,16.34,0,0,0,.27-2.78A7.61,7.61,0,0,0,927,222.2a7.3,7.3,0,0,0-3.17-2.58,11,11,0,0,0-9.25.27q-5.86,3.17-9,12.26-1.4,4.54-5.21,18.08t-6.51,23.25a2.82,2.82,0,0,1-2.78,2.16,3.33,3.33,0,0,1-2.2-.81,2.56,2.56,0,0,1-1-2,4.4,4.4,0,0,1,.15-1l11.42-40.26c.3-1.28.56-2.43.77-3.43a13.14,13.14,0,0,0,.31-2.43,5.16,5.16,0,0,0-.31-1.81,10.91,10.91,0,0,0-1.16-2c-1.54-2.37-3.5-3.55-5.86-3.55A8.53,8.53,0,0,0,889,219.5a15.78,15.78,0,0,0-5,4.4,27.54,27.54,0,0,0-4.2,8.48L868,273.71a2.27,2.27,0,0,1-1,1.35,3.11,3.11,0,0,1-1.77.5,3.69,3.69,0,0,1-2.2-.69,2.24,2.24,0,0,1-1-1.93,4.33,4.33,0,0,1,.15-.92q1.55-5.55,9-31.77,2.08-7.41,2.85-10.26a29.92,29.92,0,0,0,.85-3.7c.1-1.24.15-2.11.15-2.62a12.66,12.66,0,0,0-1-5,13,13,0,0,0-3.51-4.47,15,15,0,0,0-10.18-3.93,14.79,14.79,0,0,0-7,1.73,13.21,13.21,0,0,0-5.2,4.94,13.79,13.79,0,0,0-1.93,7.29,12,12,0,0,0,1.46,6,10.38,10.38,0,0,0,3.86,4,9.66,9.66,0,0,0,4.94,1.39,7.89,7.89,0,0,0,4.12-1.08,6,6,0,0,0,2.58-2.93,3,3,0,0,1,1.16-1.31,3.06,3.06,0,0,1,1.62-.46,3.57,3.57,0,0,1,1.23.23,2.54,2.54,0,0,1,1.32,1,3.11,3.11,0,0,1,.46,1.66,3.57,3.57,0,0,1-.23,1.23,12.15,12.15,0,0,1-4.82,5.59,13.73,13.73,0,0,1-7.44,2.05,15.21,15.21,0,0,1-8.26-2.32,16.61,16.61,0,0,1-5.86-6.32,18.72,18.72,0,0,1-2.23-8.71A19.73,19.73,0,0,1,842.78,214.18Z"/><path d="M951.62,272.09a10.44,10.44,0,0,1-1.23-1.31,12.2,12.2,0,0,1-3.89,2.43,11.77,11.77,0,0,1-4.21.81,10.6,10.6,0,0,1-5.43-1.46,11.19,11.19,0,0,1-4.05-4.09,11.78,11.78,0,0,1-1.55-6.09,22.68,22.68,0,0,1,.85-5.55,21.35,21.35,0,0,1,4.86-9.18,14.48,14.48,0,0,1,4.2-3.12,11.19,11.19,0,0,1,5.13-1.28,7.82,7.82,0,0,1,2.24.31,9.45,9.45,0,0,1,5.24,3.24l.39-1.23a3.1,3.1,0,0,1,1.12-1.62,2.8,2.8,0,0,1,1.73-.62,2.77,2.77,0,0,1,.85.15,3.16,3.16,0,0,1,1.62,1.12,3,3,0,0,1,.62,1.82,4.64,4.64,0,0,1-.16.84L955.32,263a11.43,11.43,0,0,0-.46,2.7,2.47,2.47,0,0,0,.7,1.85,2.55,2.55,0,0,0,1.62.54,3.4,3.4,0,0,0,1.54-.38,3.75,3.75,0,0,0,1.42-1.43,14.36,14.36,0,0,0,1.2-2.81l1.54-5a2.78,2.78,0,0,1,1-1.61,2.88,2.88,0,0,1,1.81-.62,4.29,4.29,0,0,1,.85.15,3.16,3.16,0,0,1,1.62,1.12,2.83,2.83,0,0,1,.62,1.74,2.71,2.71,0,0,1-.15.84l-1.62,5.32a18.54,18.54,0,0,1-2,4.48,8.92,8.92,0,0,1-3.74,3.31,9.31,9.31,0,0,1-4.09.93A8.49,8.49,0,0,1,951.62,272.09Zm-5.24-5.78a12.87,12.87,0,0,0,3.24-5.24l.85-2.86a18.84,18.84,0,0,0,.3-2.62,7.65,7.65,0,0,0-1.23-4.47,3.78,3.78,0,0,0-3.24-1.77,5.67,5.67,0,0,0-2.58.69,8.26,8.26,0,0,0-2.35,1.77,16.19,16.19,0,0,0-3.47,6.71,14.94,14.94,0,0,0-.62,3.78,7.15,7.15,0,0,0,.23,1.85,4.86,4.86,0,0,0,.85,1.74,4.64,4.64,0,0,0,1.46,1.27,5.62,5.62,0,0,0,2.7.77,6.56,6.56,0,0,0,1.08-.15A6.62,6.62,0,0,0,946.38,266.31Z"/><path d="M972.52,268.7l-1.08-1.77c-.31-.57-.67-1.16-1.08-1.78a5.55,5.55,0,0,0-2.54-2.31l-.39,1.16q-1.08,3.86-1.69,5.7c-.06.26-.17.72-.35,1.39a5.23,5.23,0,0,1-.77,1.7,3,3,0,0,1-2.43,1.23,2.72,2.72,0,0,1-2.08-.92,3.18,3.18,0,0,1-.85-2.24,2.38,2.38,0,0,1,.08-.77l.46-1.54,13.72-45.73a2.86,2.86,0,0,1,1.16-1.58,3.19,3.19,0,0,1,1.85-.58,2.67,2.67,0,0,1,2.62,1.62,2.84,2.84,0,0,1,.31,1.31,4,4,0,0,1-.23,1.31c-.15.46-.26.77-.31.93l-5.47,18.35a9.81,9.81,0,0,1,4.16-1,8.49,8.49,0,0,1,3,.61,6.93,6.93,0,0,1,3.28,2.78,7.93,7.93,0,0,1,1.12,4.16,8.79,8.79,0,0,1-.93,4q-2.24,4.63-9,6.64a9.81,9.81,0,0,1,1.24,2.08,13.85,13.85,0,0,0,2.47,3.62,3.23,3.23,0,0,0,2.39,1,3.74,3.74,0,0,0,2.16-.69,8.9,8.9,0,0,0,3.08-4.55c.1-.31.28-.95.54-1.93.15-.36.41-1.15.77-2.39A3.77,3.77,0,0,1,989,256.9a2.74,2.74,0,0,1,1.77-.61,4.29,4.29,0,0,1,.85.15,3,3,0,0,1,2.08,3.47,22.73,22.73,0,0,1-1.16,3.78,24.34,24.34,0,0,1-1.88,4.47,13.23,13.23,0,0,1-2.66,3.32,10.25,10.25,0,0,1-6.79,2.62,9.48,9.48,0,0,1-8.64-5.4Zm2.93-13.8a6.77,6.77,0,0,0,3.4-3.09,2.42,2.42,0,0,0,.23-1.08,1.3,1.3,0,0,0-.93-1.38,2,2,0,0,0-.69-.08,3.58,3.58,0,0,0-1.24.23,11.22,11.22,0,0,0-4,2.74,10.31,10.31,0,0,0-2.5,4.12A26.86,26.86,0,0,0,975.45,254.9Z"/><path d="M992.92,272.33a11.51,11.51,0,0,1-4.67-4.79,11.2,11.2,0,0,1-1.08-5.09,19.38,19.38,0,0,1,1-6,28.13,28.13,0,0,1,2.54-5.71,23.15,23.15,0,0,1,4.43-5.47,8.12,8.12,0,0,1,5.52-2.24,5.82,5.82,0,0,1,1.62.23,7.42,7.42,0,0,1,4.24,3.09,7.69,7.69,0,0,1,1.31,4.55,11.43,11.43,0,0,1-.62,3.62,15.63,15.63,0,0,1-4.66,6.87,10.8,10.8,0,0,1-7.21,2.93,7.67,7.67,0,0,1-1.93-.24,4.55,4.55,0,0,0,2.24,2.9,7.49,7.49,0,0,0,3.85,1,5.06,5.06,0,0,0,1.54-.16,11.72,11.72,0,0,0,5-2.58,16.47,16.47,0,0,0,3.77-4.59c.16-.31.38-.77.66-1.39a6.22,6.22,0,0,1,.93-1.5,2.19,2.19,0,0,1,1.35-.73,3,3,0,0,1,2.19.38,2.79,2.79,0,0,1,1.35,1.78,2.7,2.7,0,0,1,.08.77,4.76,4.76,0,0,1-.42,1.89,19.43,19.43,0,0,1-1.2,2.19,22,22,0,0,1-9.14,8.56,13.65,13.65,0,0,1-6.13,1.47A13.17,13.17,0,0,1,992.92,272.33Zm2.43-14.12a4.5,4.5,0,0,0,2.47-.81,9.12,9.12,0,0,0,2.15-2,6.81,6.81,0,0,0,1.62-3.24,11.26,11.26,0,0,0,.24-1.39,1.76,1.76,0,0,0-.54-1.39,1.1,1.1,0,0,0-.78-.31c-.77,0-1.69.72-2.77,2.16A19.08,19.08,0,0,0,994,258,4,4,0,0,0,995.35,258.21Z"/><path d="M1027.27,272.09a8.53,8.53,0,0,1-2.27-3,8.86,8.86,0,0,1-.81-3.71,9.68,9.68,0,0,1,.46-2.93c.62-2.05,1.08-3.55,1.39-4.51l.54-1.65a6,6,0,0,0,.31-1.86,2.61,2.61,0,0,0-.47-1.61,6,6,0,0,0-2.73-1.93,16.53,16.53,0,0,0-4.05-1.08l-3.7,12.34a3.8,3.8,0,0,1-1.16,1.62,2.76,2.76,0,0,1-1.77.61,4.29,4.29,0,0,1-.85-.15,2.94,2.94,0,0,1-1.58-1.12,3,3,0,0,1-.58-1.81,4.29,4.29,0,0,1,.15-.85l4.47-15a2.94,2.94,0,0,1,1.12-1.58,3,3,0,0,1,1.81-.58q10.26.78,13.73,5.78a8.86,8.86,0,0,1,1.62,5.32,11,11,0,0,1-.62,3.71l-1.85,6.09a3.36,3.36,0,0,0-.15,1.15,2.61,2.61,0,0,0,.77,1.93,2.49,2.49,0,0,0,1.85.77,3.28,3.28,0,0,0,1.47-.38,3.1,3.1,0,0,0,1.42-1.58c.39-.8.81-1.84,1.28-3.13l1.46-5.09a3.18,3.18,0,0,1,1.12-1.61,2.64,2.64,0,0,1,2.58-.47,3.16,3.16,0,0,1,1.62,1.12,2.94,2.94,0,0,1,.62,1.81,3.83,3.83,0,0,1-.16.85c-.15.52-.38,1.34-.69,2.47s-.59,2.06-.85,2.78a25.63,25.63,0,0,1-2.16,5,8.25,8.25,0,0,1-3.54,3.27,9.5,9.5,0,0,1-4.17.93A8.47,8.47,0,0,1,1027.27,272.09Z"/><path d="M1055.26,271.63a9.89,9.89,0,0,1-6.55,2.47,10.33,10.33,0,0,1-3.93-.85,2.89,2.89,0,0,1-1.31-1.12,3,3,0,0,1-.47-1.66,3.17,3.17,0,0,1,.23-1.23,2.67,2.67,0,0,1,1.12-1.27,3.06,3.06,0,0,1,1.66-.5,2.83,2.83,0,0,1,1.16.23,3.81,3.81,0,0,0,1.54.31,4.17,4.17,0,0,0,3-1.31,7.52,7.52,0,0,0,1.73-2.47,6.78,6.78,0,0,0,.66-2.78,5,5,0,0,0-.23-1.54,7.63,7.63,0,0,0-1.78-2.62,46.09,46.09,0,0,0-3.54-3.09c-.11,0-.85-.64-2.24-1.77l-2.16,7.79a3.28,3.28,0,0,1-1.08,1.62,2.86,2.86,0,0,1-1.85.61,2.8,2.8,0,0,1-.77-.07,2.74,2.74,0,0,1-1.62-1.08,3.1,3.1,0,0,1-.62-1.85,2.7,2.7,0,0,1,.08-.77l3.62-13.27a3.1,3.1,0,0,1,2.93-2.08,3.1,3.1,0,0,1,2.63,1.39,20.32,20.32,0,0,0,4.78,4.78,47,47,0,0,1,4.58,4,11.71,11.71,0,0,1,2.66,4.32,9,9,0,0,1,.62,3.55,12.85,12.85,0,0,1-1.15,5.39,3.25,3.25,0,0,0,2.62,1.31,3,3,0,0,0,1.31-.3,4,4,0,0,0,1.46-1.47,12.16,12.16,0,0,0,1.16-2.78l1.54-5.09a3.3,3.3,0,0,1,1.08-1.61,2.74,2.74,0,0,1,1.78-.62,4.35,4.35,0,0,1,.84.15,3.16,3.16,0,0,1,1.62,1.12,2.94,2.94,0,0,1,.62,1.81,4.29,4.29,0,0,1-.15.85l-1.55,5.24a22.76,22.76,0,0,1-2,4.56,8.52,8.52,0,0,1-3.74,3.23,8.79,8.79,0,0,1-4,.93A9,9,0,0,1,1055.26,271.63Z"/></g></g></svg>